<svg width="512" height="512" viewBox="0 0 512 512" fill="none" xmlns="http://www.w3.org/2000/svg">
<g clip-path="url(#clip0_94_32)">
<path d="M496.52 129.86C483.09 80.38 431.63 28.92 382.15 15.49C351.82 7.92 311.17 0.13 256 0C200.84 0.14 160.19 7.92 129.86 15.49C80.38 28.93 28.92 80.38 15.49 129.86C7.92 160.19 0.14 200.84 0 256C0.14 311.17 7.92 351.82 15.49 382.15C28.92 431.63 80.38 483.08 129.86 496.52C160.19 504.09 200.86 511.87 256 512.01C311.17 511.87 351.82 504.09 382.15 496.52C431.63 483.08 483.09 431.63 496.52 382.15C504.09 351.82 511.87 311.15 512.01 256C511.87 200.84 504.09 160.19 496.52 129.86Z" fill="#FFE5E5"/>
<path d="M310.615 98.3499C300.53 90.8506 288.387 86.6271 275.825 86.2499C239.232 85.3556 202.62 86.8622 166.225 90.7599C141.915 93.5799 118.605 116.89 115.785 141.2C109.405 200.85 109.405 311.61 115.785 371.25C118.605 395.56 141.915 418.88 166.225 421.7C225.721 428.073 285.729 428.073 345.225 421.7C369.535 418.88 392.845 395.57 395.665 371.25C400.015 330.63 401.395 266.25 399.815 210.55V210.32C399.707 198.304 395.808 186.63 388.675 176.96C366.691 147.036 340.384 120.543 310.615 98.3499Z" fill="url(#paint0_linear_94_32)"/>
<path d="M399.755 210.56C395.125 210.67 390.485 210.75 385.885 210.75C366.303 210.745 346.736 209.7 327.265 207.62H327.095C315.495 206.28 304.095 200.52 294.985 191.41C285.875 182.3 280.115 170.88 278.775 159.25C278.77 159.193 278.77 159.137 278.775 159.08C276.19 134.895 275.201 110.565 275.815 86.25C288.38 86.6252 300.528 90.8488 310.615 98.35C340.441 120.599 366.79 147.163 388.795 177.17C395.892 186.781 399.745 198.402 399.795 210.35L399.755 210.56Z" fill="url(#paint1_linear_94_32)"/>
<path d="M187.055 385.37C180.743 385.354 174.694 382.837 170.235 378.37C167.655 375.788 165.705 372.645 164.536 369.187C163.367 365.729 163.01 362.048 163.494 358.43C163.977 354.812 165.288 351.354 167.324 348.324C169.36 345.294 172.067 342.774 175.235 340.96C191.503 331.661 208.467 323.637 225.975 316.96C227.035 314.96 228.088 312.907 229.135 310.8C235.642 297.807 241.099 284.314 245.455 270.45C236.596 256.547 229.985 241.333 225.865 225.37C224.63 220.419 225.066 215.198 227.106 210.52C229.145 205.842 232.674 201.97 237.143 199.506C241.612 197.041 246.77 196.123 251.814 196.895C256.859 197.666 261.507 200.083 265.035 203.77C267.323 206.164 269.074 209.019 270.169 212.144C271.264 215.269 271.679 218.592 271.385 221.89C269.974 237.452 267.132 252.85 262.895 267.89C270.973 279.401 280.453 289.861 291.115 299.03C302.401 297.074 313.789 295.769 325.225 295.12C328.601 294.944 331.972 295.557 335.071 296.91C338.169 298.264 340.909 300.321 343.074 302.918C345.239 305.515 346.769 308.58 347.542 311.872C348.316 315.163 348.312 318.589 347.53 321.879C346.749 325.168 345.212 328.23 343.041 330.822C340.87 333.414 338.125 335.465 335.024 336.811C331.923 338.157 328.55 338.762 325.174 338.578C321.798 338.394 318.512 337.426 315.575 335.75C305.435 329.947 295.759 323.367 286.635 316.07C269.843 319.366 253.331 323.953 237.245 329.79C228.064 346.348 217.415 362.048 205.425 376.7C203.322 379.259 200.708 381.351 197.749 382.84C194.79 384.33 191.553 385.185 188.245 385.35C187.825 385.37 187.445 385.37 187.055 385.37ZM212.535 339.83C202.945 344.17 193.115 349.15 183.125 354.83C182.089 355.415 181.203 356.234 180.54 357.222C179.877 358.21 179.454 359.339 179.305 360.52C179.083 362.2 179.414 363.907 180.248 365.383C181.082 366.858 182.373 368.023 183.926 368.7C185.48 369.377 187.212 369.531 188.86 369.138C190.509 368.745 191.985 367.826 193.065 366.52C200.046 357.992 206.546 349.081 212.535 339.83ZM308.675 312.59C313.315 315.77 318.245 318.89 323.515 321.92C324.267 322.357 325.11 322.614 325.977 322.669C326.845 322.725 327.714 322.578 328.515 322.24C329.351 321.899 330.096 321.368 330.691 320.689C331.286 320.01 331.714 319.202 331.942 318.328C332.17 317.455 332.192 316.54 332.005 315.657C331.818 314.774 331.428 313.946 330.865 313.24C330.298 312.523 329.567 311.953 328.733 311.578C327.899 311.204 326.987 311.037 326.075 311.09C321.115 311.33 315.285 311.8 308.675 312.59ZM256.915 286.59C254.025 294.59 250.845 302.3 247.505 309.59C255.985 306.96 264.105 304.79 271.785 303.01C266.5 297.823 261.531 292.323 256.905 286.54L256.915 286.59ZM247.985 212.67C246.914 212.713 245.867 212.995 244.92 213.497C243.973 213.999 243.151 214.708 242.515 215.57C241.875 216.415 241.436 217.394 241.23 218.433C241.024 219.473 241.056 220.545 241.325 221.57C243.692 230.786 247.02 239.729 251.255 248.25C253.212 239.083 254.614 229.806 255.455 220.47C255.553 219.438 255.425 218.397 255.08 217.419C254.734 216.442 254.18 215.551 253.455 214.81C252.755 214.064 251.899 213.48 250.949 213.1C249.999 212.719 248.977 212.552 247.955 212.61L247.985 212.67Z" fill="url(#paint2_linear_94_32)"/>
</g>
<defs>
<linearGradient id="paint0_linear_94_32" x1="378.045" y1="404.95" x2="106.975" y2="133.89" gradientUnits="userSpaceOnUse">
<stop stop-color="#EF3739"/>
<stop offset="0.54" stop-color="#EF3739"/>
<stop offset="1" stop-color="#FF8C8B"/>
</linearGradient>
<linearGradient id="paint1_linear_94_32" x1="385.505" y1="224.81" x2="261.385" y2="100.69" gradientUnits="userSpaceOnUse">
<stop stop-color="#34344F"/>
<stop offset="0.26" stop-color="#3B3B57"/>
<stop offset="0.66" stop-color="#50506D"/>
<stop offset="1" stop-color="#666684"/>
</linearGradient>
<linearGradient id="paint2_linear_94_32" x1="300.255" y1="373.73" x2="180.935" y2="254.41" gradientUnits="userSpaceOnUse">
<stop stop-color="#FFD2D2"/>
<stop offset="0.57" stop-color="white"/>
<stop offset="1" stop-color="white"/>
</linearGradient>
<clipPath id="clip0_94_32">
<rect width="512" height="512" fill="white"/>
</clipPath>
</defs>
</svg>
