<svg width="512" height="512" viewBox="0 0 512 512" fill="none" xmlns="http://www.w3.org/2000/svg">
<g clip-path="url(#clip0_94_22)">
<path d="M496.52 129.86C483.09 80.38 431.63 28.92 382.15 15.49C351.82 7.92 311.17 0.13 256 0C200.84 0.14 160.19 7.92 129.86 15.49C80.38 28.93 28.92 80.38 15.49 129.86C7.92 160.19 0.14 200.84 0 256C0.14 311.17 7.92 351.82 15.49 382.15C28.92 431.63 80.38 483.08 129.86 496.52C160.19 504.09 200.86 511.87 256 512.01C311.17 511.87 351.82 504.09 382.15 496.52C431.63 483.08 483.09 431.63 496.52 382.15C504.09 351.82 511.87 311.15 512.01 256C511.87 200.84 504.09 160.19 496.52 129.86Z" fill="#EAF7FE"/>
<path d="M102.964 187.728C103.316 185.34 103.682 183.05 104.047 180.858C109.389 150.615 136.479 123.118 166.615 117.012V104.761C166.615 96.0585 173.673 89 182.375 89C191.077 89 198.135 96.0585 198.135 104.761V112.831C207.939 111.911 218.93 111.206 231.252 110.867V104.767C231.252 96.065 238.31 89.0065 247.011 89.0065C255.713 89.0065 262.771 96.065 262.771 104.767V110.867C275.093 111.206 286.078 111.917 295.888 112.831V104.761C295.888 96.0585 302.946 89 311.648 89C320.349 89 327.407 96.0585 327.407 104.761V117.012C357.543 123.118 384.627 150.615 389.976 180.858C390.335 183.018 390.693 185.275 391.039 187.623C267.604 179.012 146.355 185.001 102.964 187.728ZM279.979 407.722C270.044 408.315 259.092 408.681 247.011 408.694C212.302 408.655 186.889 405.745 168.214 402.64C137.445 397.199 109.487 369.252 104.053 338.474C100.948 319.797 98.0391 294.375 98 259.663C98.0196 241.156 98.8545 225.297 100.107 211.689C138.86 209.145 265.771 202.295 393.922 211.617C395.175 225.245 396.016 241.13 396.036 259.663C396.023 269.331 395.788 278.268 395.39 286.553C381.405 276.937 364.862 271.758 347.524 271.758C324.889 271.758 303.605 280.571 287.597 296.58C271.59 312.589 262.777 333.875 262.777 356.512C262.777 375.254 268.824 393.063 279.985 407.722H279.979ZM199.335 322.87C199.335 318.369 198.95 315.068 198.552 312.641C197.848 308.648 194.221 305.021 190.229 304.317C187.802 303.912 184.508 303.534 180.001 303.534C175.5 303.534 172.199 303.919 169.779 304.317C165.787 305.021 162.16 308.648 161.456 312.641C161.051 315.061 160.673 318.362 160.673 322.87C160.673 327.371 161.058 330.672 161.456 333.099C162.16 337.091 165.787 340.718 169.779 341.423C172.206 341.827 175.5 342.206 180.001 342.206C184.501 342.206 187.802 341.821 190.229 341.423C194.221 340.718 197.848 337.091 198.552 333.099C198.956 330.672 199.335 327.378 199.335 322.87ZM199.335 259.611C199.335 255.11 198.95 251.809 198.552 249.382C197.848 245.389 194.221 241.762 190.229 241.058C187.802 240.653 184.508 240.275 180.001 240.275C175.5 240.275 172.199 240.66 169.779 241.058C165.787 241.762 162.16 245.389 161.456 249.382C161.051 251.802 160.673 255.103 160.673 259.611C160.673 264.112 161.058 267.413 161.456 269.833C162.16 273.826 165.787 277.453 169.779 278.157C172.206 278.562 175.5 278.94 180.001 278.94C184.501 278.94 187.802 278.555 190.229 278.157C194.221 277.453 197.848 273.826 198.552 269.833C198.956 267.413 199.335 264.112 199.335 259.611ZM265.563 269.84C265.967 267.419 266.345 264.119 266.345 259.617C266.345 255.116 265.961 251.815 265.563 249.388C264.858 245.396 261.231 241.769 257.239 241.064C254.813 240.66 251.519 240.281 247.011 240.281C242.51 240.281 239.21 240.666 236.783 241.064C232.791 241.769 229.164 245.396 228.46 249.388C228.055 251.809 227.677 255.11 227.677 259.617C227.677 264.119 228.062 267.419 228.46 269.84C229.164 273.832 232.791 277.459 236.783 278.164C239.21 278.568 242.504 278.947 247.011 278.947C251.512 278.947 254.813 278.562 257.239 278.164C261.231 277.459 264.858 273.832 265.563 269.84ZM414 356.512C414 393.233 384.236 423 347.518 423C310.8 423 281.035 393.233 281.035 356.512C281.035 319.791 310.8 290.024 347.518 290.024C384.236 290.024 414 319.791 414 356.512ZM376.251 361.144L359.911 349.969V324.39C359.911 317.547 354.36 311.995 347.518 311.995C340.675 311.995 335.124 317.547 335.124 324.39V356.505C335.124 360.596 337.146 364.425 340.525 366.734L362.266 381.601C364.406 383.063 366.839 383.767 369.252 383.767C373.205 383.767 377.093 381.875 379.493 378.366C383.355 372.716 381.907 364.999 376.258 361.137L376.251 361.144Z" fill="url(#paint0_linear_94_22)"/>
</g>
<defs>
<linearGradient id="paint0_linear_94_22" x1="97.9935" y1="255.997" x2="414" y2="255.997" gradientUnits="userSpaceOnUse">
<stop stop-color="#0080DE"/>
<stop offset="0.6" stop-color="#49BCFF"/>
<stop offset="1" stop-color="#61CAFF"/>
</linearGradient>
<clipPath id="clip0_94_22">
<rect width="512" height="512" fill="white"/>
</clipPath>
</defs>
</svg>
