<svg width="512" height="512" viewBox="0 0 512 512" fill="none" xmlns="http://www.w3.org/2000/svg">
<g clip-path="url(#clip0_106_14)">
<path d="M496.52 129.86C483.09 80.38 431.63 28.92 382.15 15.49C351.82 7.92 311.17 0.13 256 0C200.84 0.14 160.19 7.92 129.86 15.49C80.38 28.93 28.92 80.38 15.49 129.86C7.92 160.19 0.14 200.84 0 256C0.14 311.17 7.92 351.82 15.49 382.15C28.92 431.63 80.38 483.08 129.86 496.52C160.19 504.09 200.86 511.87 256 512.01C311.17 511.87 351.82 504.09 382.15 496.52C431.63 483.08 483.09 431.63 496.52 382.15C504.09 351.82 511.87 311.15 512.01 256C511.87 200.84 504.09 160.19 496.52 129.86Z" fill="#FFF1EB"/>
<path d="M408.19 183.57C402.4 150.81 372.65 121.05 339.89 115.27C320 112 293 108.86 256 108.82C219 108.78 192 111.96 172.12 115.27C139.36 121.06 109.61 150.81 103.82 183.57C100.51 203.45 97.4202 230.5 97.3702 267.45C97.3202 304.4 100.51 331.45 103.82 351.34C109.61 384.1 139.36 413.85 172.12 419.64C192 423 219.06 426 256 426.08C292.94 426.16 320 422.94 339.89 419.64C372.65 413.85 402.4 384.1 408.19 351.34C411.5 331.46 414.59 304.4 414.64 267.45C414.69 230.5 411.5 203.45 408.19 183.57Z" fill="url(#paint0_linear_106_14)"/>
<path d="M204.44 345.65C203.977 347.825 202.894 349.819 201.321 351.391C199.749 352.964 197.755 354.047 195.58 354.51C188.369 355.617 181.031 355.617 173.82 354.51C171.645 354.048 169.65 352.965 168.077 351.393C166.505 349.82 165.422 347.826 164.96 345.65C163.84 338.44 163.84 331.1 164.96 323.89C165.422 321.715 166.505 319.72 168.077 318.148C169.65 316.575 171.645 315.492 173.82 315.03C181.03 313.91 188.37 313.91 195.58 315.03C197.755 315.493 199.749 316.577 201.321 318.149C202.894 319.721 203.977 321.715 204.44 323.89C205.547 331.101 205.547 338.439 204.44 345.65ZM204.44 278.35C203.974 280.523 202.89 282.514 201.318 284.084C199.746 285.654 197.753 286.737 195.58 287.2C188.37 288.32 181.03 288.32 173.82 287.2C171.646 286.739 169.652 285.658 168.08 284.087C166.507 282.516 165.424 280.524 164.96 278.35C163.84 271.14 163.84 263.8 164.96 256.59C165.422 254.415 166.505 252.42 168.077 250.848C169.65 249.275 171.645 248.192 173.82 247.73C181.03 246.61 188.37 246.61 195.58 247.73C197.755 248.193 199.749 249.277 201.321 250.849C202.894 252.421 203.977 254.415 204.44 256.59C205.547 263.801 205.547 271.139 204.44 278.35ZM275.74 345.65C275.279 347.824 274.197 349.818 272.627 351.39C271.056 352.963 269.064 354.046 266.89 354.51C259.676 355.617 252.335 355.617 245.12 354.51C242.947 354.046 240.954 352.963 239.383 351.39C237.813 349.818 236.731 347.824 236.27 345.65C235.15 338.44 235.15 331.1 236.27 323.89C236.731 321.716 237.813 319.722 239.383 318.15C240.954 316.577 242.947 315.494 245.12 315.03C252.334 313.91 259.677 313.91 266.89 315.03C269.064 315.494 271.056 316.577 272.627 318.15C274.197 319.722 275.279 321.716 275.74 323.89C276.86 331.1 276.86 338.44 275.74 345.65ZM275.74 278.35C275.277 280.522 274.195 282.514 272.625 284.085C271.054 285.655 269.062 286.737 266.89 287.2C259.677 288.32 252.334 288.32 245.12 287.2C242.948 286.737 240.956 285.655 239.386 284.085C237.815 282.514 236.733 280.522 236.27 278.35C235.15 271.14 235.15 263.8 236.27 256.59C236.731 254.416 237.813 252.422 239.383 250.85C240.954 249.277 242.947 248.194 245.12 247.73C252.334 246.61 259.677 246.61 266.89 247.73C269.064 248.194 271.056 249.277 272.627 250.85C274.197 252.422 275.279 254.416 275.74 256.59C276.86 263.8 276.86 271.14 275.74 278.35ZM347.05 278.35C346.586 280.524 345.503 282.516 343.93 284.087C342.358 285.658 340.364 286.739 338.19 287.2C330.98 288.32 323.64 288.32 316.43 287.2C314.256 286.739 312.262 285.658 310.69 284.087C309.117 282.516 308.034 280.524 307.57 278.35C306.99 274.753 306.712 271.114 306.74 267.47C306.716 263.827 306.994 260.188 307.57 256.59C308.032 254.415 309.115 252.42 310.688 250.848C312.26 249.275 314.255 248.192 316.43 247.73C323.64 246.61 330.98 246.61 338.19 247.73C340.365 248.192 342.36 249.275 343.933 250.848C345.505 252.42 346.588 254.415 347.05 256.59C348.17 263.8 348.17 271.14 347.05 278.35Z" fill="url(#paint1_linear_106_14)"/>
<path d="M411 203.61C410.12 196.26 409.14 189.61 408.15 183.61C402.47 151.46 373.69 122.21 341.64 115.69V102.69C341.64 98.2422 339.873 93.9767 336.728 90.8317C333.583 87.6868 329.317 85.9199 324.87 85.9199C320.422 85.9199 316.157 87.6868 313.012 90.8317C309.867 93.9767 308.1 98.2422 308.1 102.69V111.26C297.67 110.26 285.98 109.52 272.87 109.16V102.7C272.87 98.2522 271.103 93.9867 267.958 90.8417C264.813 87.6968 260.547 85.9299 256.1 85.9299C253.897 85.9286 251.716 86.3615 249.681 87.2038C247.645 88.0461 245.796 89.2813 244.239 90.8388C242.681 92.3963 241.446 94.2455 240.604 96.2808C239.761 98.316 239.328 100.497 239.33 102.7V109.17C226.22 109.53 214.53 110.28 204.09 111.25V102.7C204.09 100.498 203.656 98.317 202.813 96.2823C201.97 94.2477 200.735 92.399 199.178 90.8417C197.621 89.2845 195.772 88.0492 193.737 87.2065C191.703 86.3637 189.522 85.9299 187.32 85.9299C185.118 85.9299 182.937 86.3637 180.902 87.2065C178.868 88.0492 177.019 89.2845 175.462 90.8417C173.904 92.399 172.669 94.2477 171.826 96.2823C170.984 98.317 170.55 100.498 170.55 102.7V115.7C138.44 122.16 109.55 151.44 103.88 183.7C102.88 189.7 101.88 196.31 101.03 203.7C101.03 203.7 162.63 200.61 256.09 200.61C349.55 200.61 411 203.61 411 203.61Z" fill="url(#paint2_linear_106_14)"/>
</g>
<defs>
<linearGradient id="paint0_linear_106_14" x1="384.16" y1="395.6" x2="127.86" y2="139.3" gradientUnits="userSpaceOnUse">
<stop stop-color="#FE7838"/>
<stop offset="0.54" stop-color="#FE7636"/>
<stop offset="1" stop-color="#FFAD8A"/>
</linearGradient>
<linearGradient id="paint1_linear_106_14" x1="291.45" y1="336.57" x2="186.9" y2="232.02" gradientUnits="userSpaceOnUse">
<stop stop-color="#FFDDCE"/>
<stop offset="0.57" stop-color="white"/>
<stop offset="1" stop-color="white"/>
</linearGradient>
<linearGradient id="paint2_linear_106_14" x1="343.12" y1="271.47" x2="168.97" y2="97.3199" gradientUnits="userSpaceOnUse">
<stop stop-color="#EF3739"/>
<stop offset="0.54" stop-color="#EF3739"/>
<stop offset="1" stop-color="#FF8C8B"/>
</linearGradient>
<clipPath id="clip0_106_14">
<rect width="512" height="512" fill="white"/>
</clipPath>
</defs>
</svg>
